<?xml version="1.0" standalone="no"?>
<!DOCTYPE svg PUBLIC "-//W3C//DTD SVG 20010904//EN"
 "http://www.w3.org/TR/2001/REC-SVG-20010904/DTD/svg10.dtd">
<svg version="1.0" xmlns="http://www.w3.org/2000/svg"
 width="275.000000pt" height="275.000000pt" viewBox="0 0 275.000000 275.000000"
 preserveAspectRatio="xMidYMid meet">
<metadata>
Created by potrace 1.11, written by Peter Selinger 2001-2013
</metadata>
<g transform="translate(0.000000,275.000000) scale(0.100000,-0.100000)"
fill="#000000" stroke="none">
<path d="M1642 1797 c-5 -7 -13 -26 -16 -43 -8 -34 -50 -79 -111 -116 -63 -38
-73 -40 -67 -12 5 27 28 43 66 46 32 3 25 14 -13 21 -62 13 -121 -33 -121 -93
0 -14 -11 -25 -37 -36 -21 -9 -46 -20 -55 -25 -10 -5 -30 -9 -45 -8 -19 0 -23
3 -13 7 8 4 15 16 15 26 0 14 11 23 35 30 l35 10 -34 4 c-87 9 -136 -23 -90
-59 23 -17 20 -17 -51 2 -71 19 -78 20 -155 4 -44 -8 -112 -16 -150 -17 -93
-2 -50 -13 87 -24 163 -12 378 -9 378 6 0 4 6 7 13 8 6 0 50 3 97 5 79 5 126
18 265 71 53 20 197 20 310 1 48 -9 89 -14 91 -12 7 7 -168 46 -231 52 -33 3
-93 7 -133 9 -64 2 -77 0 -105 -21 -31 -24 -77 -51 -67 -40 39 41 97 78 117
74 22 -4 23 -2 23 63 0 50 -4 69 -14 73 -8 3 -19 0 -24 -6z"/>
<path d="M2276 1570 c-21 -4 -129 -5 -240 -3 -172 3 -289 -3 -396 -21 -14 -3
-41 -7 -60 -10 -84 -13 -117 -18 -140 -21 -91 -16 -153 -20 -290 -20 -190 0
-280 8 -435 37 -66 12 -156 22 -200 22 -100 0 -137 -17 -255 -116 -47 -39
-113 -84 -147 -100 -35 -17 -63 -34 -63 -39 0 -6 9 -19 20 -31 11 -12 20 -30
20 -39 0 -13 11 -19 43 -24 61 -9 197 -11 197 -3 0 3 -34 12 -75 19 -42 6 -78
16 -81 21 -18 29 142 203 223 243 78 38 159 37 358 -3 285 -58 428 -60 757
-11 75 11 167 27 205 36 46 10 132 17 268 19 202 4 288 13 348 39 29 13 30 14
7 13 -14 0 -42 -4 -64 -8z"/>
<path d="M479 1490 c-90 -17 -141 -76 -142 -164 -1 -80 33 -128 110 -156 28
-11 28 -10 -5 16 -60 48 -77 110 -47 180 18 44 35 61 81 80 43 18 155 17 229
-3 69 -18 79 -15 23 6 -91 36 -191 52 -249 41z"/>
<path d="M2301 1484 c-68 -20 -132 -94 -94 -108 8 -3 30 10 52 33 53 54 94 65
210 57 53 -3 112 -10 131 -16 19 -5 42 -10 50 -9 19 1 -111 36 -165 45 -77 12
-140 11 -184 -2z"/>
<path d="M2321 1436 c-39 -14 -66 -45 -51 -60 7 -7 20 -1 39 18 36 34 97 45
139 23 24 -11 29 -12 25 -2 -6 17 -57 35 -92 34 -14 0 -41 -6 -60 -13z"/>
<path d="M452 1411 c-39 -25 -55 -63 -49 -114 5 -40 40 -87 63 -87 8 0 3 10
-10 25 -28 30 -36 63 -24 96 24 65 91 94 149 65 39 -19 46 -16 19 9 -31 28
-108 31 -148 6z"/>
<path d="M788 1423 c7 -3 16 -2 19 1 4 3 -2 6 -13 5 -11 0 -14 -3 -6 -6z"/>
<path d="M878 1374 c77 -65 50 -115 -88 -165 l-65 -24 109 -3 c61 -1 115 -1
122 2 8 3 11 33 10 92 l-1 88 -65 23 -65 23 43 -36z"/>
<path d="M511 1338 c-12 -4 -21 -14 -21 -23 0 -19 16 -20 23 -1 3 8 23 16 44
18 l38 3 -31 6 c-18 3 -41 2 -53 -3z"/>
<path d="M2138 1293 c-54 -54 -55 -54 -121 -57 -37 -1 -70 0 -72 3 -3 3 11 22
32 43 l37 38 -48 0 c-44 0 -54 -4 -98 -46 -59 -55 -87 -49 -32 7 l38 39 -49 0
c-45 0 -53 -4 -90 -42 -22 -24 -48 -44 -57 -44 -24 -2 -23 0 17 40 19 20 35
38 35 41 0 3 -21 5 -47 5 -42 0 -52 -5 -89 -41 -38 -37 -48 -42 -91 -42 -87 1
-86 0 -48 39 19 20 35 38 35 40 0 2 -20 4 -45 4 -37 0 -50 -5 -78 -34 -19 -18
-43 -39 -54 -45 -36 -19 -34 2 4 41 l37 38 -44 0 c-38 0 -50 -6 -85 -39 -22
-21 -51 -42 -65 -46 -22 -6 -19 -1 20 39 l44 46 -51 0 c-50 0 -54 -2 -114 -62
l-62 -63 554 -3 c305 -1 563 0 575 2 11 3 39 24 62 46 24 22 46 40 51 40 20 0
18 -15 -4 -42 -14 -16 -23 -34 -19 -39 6 -10 193 -13 218 -3 9 4 21 14 26 24
9 16 5 18 -38 18 -91 -1 -89 -2 -58 31 35 37 27 51 -30 51 -29 0 -44 4 -44 13
0 8 -17 13 -49 14 -46 1 -51 -2 -103 -54z"/>
<path d="M810 1113 c-26 -9 -40 -36 -40 -75 0 -53 27 -78 84 -76 25 0 44 4 41
8 -2 4 -23 6 -45 4 -50 -4 -70 15 -70 65 0 41 16 61 49 64 12 1 21 5 21 9 0 9
-17 9 -40 1z"/>
<path d="M865 1110 c3 -5 10 -10 16 -10 5 0 9 5 9 10 0 6 -7 10 -16 10 -8 0
-12 -4 -9 -10z"/>
<path d="M900 1112 c0 -8 46 -9 54 -1 3 3 -8 6 -24 7 -17 1 -30 -1 -30 -6z"/>
<path d="M970 1112 c0 -4 9 -8 20 -8 11 0 20 4 20 8 0 4 -9 8 -20 8 -11 0 -20
-4 -20 -8z"/>
<path d="M1020 1112 c0 -4 25 -7 55 -8 30 0 55 3 55 6 0 4 -25 7 -55 8 -30 0
-55 -3 -55 -6z"/>
<path d="M1140 1112 c0 -8 46 -9 54 -1 3 3 -8 6 -24 7 -17 1 -30 -1 -30 -6z"/>
<path d="M1210 1112 c0 -4 9 -8 20 -8 11 0 20 4 20 8 0 4 -9 8 -20 8 -11 0
-20 -4 -20 -8z"/>
<path d="M1260 1112 c0 -4 25 -7 55 -8 30 0 55 3 55 6 0 4 -25 7 -55 8 -30 0
-55 -3 -55 -6z"/>
<path d="M1384 1112 c3 -5 14 -8 25 -7 33 2 33 11 0 13 -17 1 -28 -1 -25 -6z"/>
<path d="M1450 1112 c0 -4 9 -8 20 -8 11 0 20 4 20 8 0 4 -9 8 -20 8 -11 0
-20 -4 -20 -8z"/>
<path d="M1500 1111 c0 -3 43 -6 95 -6 52 0 95 2 95 6 0 3 -43 6 -95 6 -52 0
-95 -2 -95 -6z"/>
<path d="M1700 1112 c0 -8 46 -9 54 -1 3 3 -8 6 -24 7 -17 1 -30 -1 -30 -6z"/>
<path d="M1770 1112 c0 -4 9 -8 20 -8 11 0 20 4 20 8 0 4 -9 8 -20 8 -11 0
-20 -4 -20 -8z"/>
<path d="M1820 1112 c0 -4 21 -7 46 -6 28 1 51 -4 60 -13 16 -17 9 -37 -11
-29 -7 2 -21 -1 -31 -9 -15 -11 -16 -15 -5 -29 11 -13 11 -16 0 -17 -8 0 -5
-4 6 -9 22 -9 49 15 41 37 -3 7 -1 15 4 18 16 10 11 -52 -5 -65 -8 -7 -29 -14
-45 -15 -17 -1 -34 -5 -37 -9 -12 -11 78 2 92 14 9 8 15 30 15 56 0 59 -24 82
-84 82 -25 0 -46 -3 -46 -6z m90 -72 c0 -5 -4 -10 -10 -10 -5 0 -10 5 -10 10
0 6 5 10 10 10 6 0 10 -4 10 -10z"/>
<path d="M753 1095 c-5 -8 -23 -26 -41 -39 -30 -22 -36 -23 -59 -11 -28 15
-81 3 -90 -21 -3 -8 -9 -11 -14 -8 -6 3 -16 0 -24 -6 -9 -7 -26 -10 -42 -6
-22 5 -24 4 -11 -4 9 -6 34 -10 55 -9 21 0 50 -2 64 -6 17 -4 40 -1 62 10 39
18 71 14 96 -14 9 -9 13 -12 8 -5 -12 18 -11 88 2 112 13 24 7 31 -6 7z m-26
-81 c-2 -2 -12 -2 -21 2 -15 6 -15 7 1 20 15 11 19 10 21 -2 2 -9 2 -18 -1
-20z m-73 13 c15 -11 13 -14 -22 -23 -21 -6 -47 -7 -58 -3 -16 6 -14 9 16 23
43 19 42 19 64 3z"/>
<path d="M1966 1071 c10 -29 11 -48 4 -66 -13 -33 -12 -45 0 -23 16 26 62 31
103 12 25 -12 43 -14 63 -8 16 4 43 7 61 5 18 -1 40 2 50 8 15 9 13 10 -10 5
-16 -4 -33 -1 -42 6 -8 7 -15 9 -15 5 0 -5 -8 -1 -19 9 -30 27 -77 37 -98 19
-17 -14 -17 -14 6 -9 13 3 40 -2 60 -11 32 -13 34 -16 16 -23 -34 -13 -107 22
-159 76 l-34 35 14 -40z m48 -52 c-10 -16 -23 -9 -21 10 1 15 4 17 14 9 7 -5
10 -14 7 -19z"/>
<path d="M820 1067 c0 -10 5 -28 12 -40 l12 -22 7 25 6 25 11 -25 c10 -26 14
-22 25 28 6 26 -9 30 -16 5 -4 -17 -5 -17 -6 0 -1 20 -17 23 -24 5 -4 -10 -8
-9 -16 2 -9 13 -11 12 -11 -3z"/>
<path d="M1119 1075 c-3 -6 -2 -23 2 -40 5 -24 7 -25 8 -7 0 12 6 22 11 22 6
0 10 -10 10 -22 0 -18 2 -20 9 -9 11 17 -5 55 -19 46 -4 -3 -10 0 -12 7 -3 7
-7 8 -9 3z"/>
<path d="M1206 1060 c3 -14 10 -29 15 -34 14 -16 10 6 -7 34 l-15 25 7 -25z"/>
<path d="M1237 1073 c-4 -3 -7 -11 -7 -17 0 -6 5 -5 12 2 6 6 9 14 7 17 -3 3
-9 2 -12 -2z"/>
<path d="M1270 1068 c0 -9 -6 -18 -12 -21 -10 -3 -10 -8 -2 -16 9 -10 13 -6
18 14 4 15 5 30 1 33 -3 3 -5 -2 -5 -10z"/>
<path d="M1372 1054 c-1 -13 0 -24 2 -24 7 0 14 40 7 44 -4 3 -8 -6 -9 -20z"/>
<path d="M1614 1045 c1 -19 4 -35 9 -35 4 0 7 5 7 11 0 8 4 8 14 0 11 -9 13
-6 12 21 -1 25 -7 34 -22 36 -18 3 -20 -2 -20 -33z"/>
<path d="M1790 1050 c0 -16 5 -30 10 -30 6 0 9 14 8 30 -1 17 -6 30 -10 30 -4
0 -8 -13 -8 -30z"/>
<path d="M913 1062 c-7 -5 -10 -18 -6 -32 7 -25 7 -25 14 5 9 33 8 37 -8 27z"/>
<path d="M947 1058 c-13 -7 -15 -13 -7 -29 11 -19 40 -27 40 -10 0 5 3 16 6
24 7 18 -17 28 -39 15z m23 -28 c0 -5 -2 -10 -4 -10 -3 0 -8 5 -11 10 -3 6 -1
10 4 10 6 0 11 -4 11 -10z"/>
<path d="M1006 1062 c-3 -3 -6 -17 -5 -31 l0 -26 11 25 c11 25 11 25 15 3 6
-32 20 -29 18 4 -1 24 -25 40 -39 25z"/>
<path d="M1072 1060 c-19 -8 -21 -13 -12 -30 11 -21 40 -28 40 -10 0 6 -5 9
-11 8 -6 -2 -14 3 -16 10 -3 6 2 12 11 12 9 0 16 5 16 10 0 6 -1 10 -2 9 -2 0
-13 -4 -26 -9z"/>
<path d="M1342 1056 c7 -8 15 -12 17 -11 5 6 -10 25 -20 25 -5 0 -4 -6 3 -14z"/>
<path d="M1483 1056 c0 -7 6 -13 14 -13 7 0 13 4 13 8 0 4 -6 9 -13 12 -8 3
-14 0 -14 -7z"/>
<path d="M1524 1055 c-3 -8 -4 -20 -2 -27 3 -7 7 -1 10 15 6 29 1 36 -8 12z"/>
<path d="M1555 1060 c-4 -6 -2 -17 5 -24 8 -11 8 -15 -2 -19 -9 -4 -9 -6 -1
-6 18 -1 27 20 13 29 -7 4 -9 13 -6 19 4 6 5 11 2 11 -3 0 -8 -5 -11 -10z"/>
<path d="M1679 1060 c-19 -12 -6 -45 19 -46 18 -1 22 4 22 26 0 27 -16 35 -41
20z m25 -25 c-4 -8 -10 -12 -15 -9 -14 8 -10 24 6 24 9 0 12 -6 9 -15z"/>
<path d="M1740 1055 c-16 -20 -6 -44 17 -40 29 6 29 7 3 15 l-25 7 24 10 c19
8 21 11 8 16 -8 3 -21 -1 -27 -8z"/>
<path d="M1821 1037 c1 -24 3 -26 6 -9 2 12 8 22 13 22 5 0 11 -10 13 -22 4
-16 5 -14 4 6 -1 19 -8 30 -19 32 -14 2 -18 -5 -17 -29z"/>
<path d="M1310 1048 c0 -23 28 -44 41 -31 8 8 6 11 -7 10 -10 -1 -19 3 -19 10
0 18 -15 28 -15 11z"/>
<path d="M1436 1046 c8 -20 -14 -30 -34 -15 -16 12 -16 12 -1 -4 19 -21 49
-13 49 14 0 10 -4 19 -10 19 -5 0 -7 -6 -4 -14z"/>
<path d="M1463 1041 c1 -14 9 -26 17 -28 10 -3 11 -2 4 4 -7 4 -14 17 -17 28
-5 16 -5 15 -4 -4z"/>
<path d="M915 969 c-2 -3 21 -6 51 -7 31 0 53 2 49 6 -8 8 -96 9 -100 1z"/>
<path d="M1035 970 c-2 -3 10 -7 26 -8 16 -1 29 2 29 7 0 9 -49 10 -55 1z"/>
<path d="M1104 969 c-2 -4 41 -7 96 -6 55 0 97 3 94 6 -8 8 -185 8 -190 0z"/>
<path d="M1315 969 c-2 -3 21 -6 51 -7 31 0 53 2 49 6 -8 8 -96 9 -100 1z"/>
<path d="M1440 970 c-12 -8 -9 -9 12 -8 15 1 24 6 22 10 -7 10 -16 10 -34 -2z"/>
<path d="M1490 970 c0 -5 5 -10 10 -10 6 0 10 5 10 10 0 6 -4 10 -10 10 -5 0
-10 -4 -10 -10z"/>
<path d="M1531 970 c-7 -4 1 -7 19 -8 18 0 29 2 26 6 -10 9 -32 11 -45 2z"/>
<path d="M1595 970 c-3 -5 1 -10 10 -10 9 0 13 5 10 10 -3 6 -8 10 -10 10 -2
0 -7 -4 -10 -10z"/>
<path d="M1634 969 c-2 -4 21 -7 51 -7 30 1 53 4 50 7 -8 8 -96 8 -101 0z"/>
<path d="M1760 970 c-12 -8 -9 -9 12 -8 15 1 24 6 22 10 -7 10 -16 10 -34 -2z"/>
<path d="M1810 970 c0 -5 5 -10 10 -10 6 0 10 5 10 10 0 6 -4 10 -10 10 -5 0
-10 -4 -10 -10z"/>
</g>
</svg>
